<svg width="847" height="847" viewBox="0 0 847 847" fill="none" xmlns="http://www.w3.org/2000/svg">
<path d="M27.36 178.98H162.39C173.89 178.98 183.21 188.3 183.21 199.8V231.9H207.26V187.03C207.26 175.53 216.58 166.21 228.08 166.21H328.44C339.94 166.21 349.26 175.53 349.26 187.03V231.9H468.95C480.44 231.9 489.77 241.22 489.77 252.72V323.13H497.4V278.26C497.4 266.77 506.72 257.44 518.22 257.44H618.58C630.08 257.44 639.4 266.77 639.4 278.26V323.13H663.45V291.04C663.45 279.54 672.77 270.22 684.27 270.22H819.3C830.8 270.22 840.12 279.54 840.12 291.04V524.6C840.12 610.36 770.03 680.45 684.27 680.45C672.77 680.45 663.45 671.13 663.45 659.63V627.54H377.71C366.22 627.54 356.89 618.21 356.89 606.72V536.3H183.21V568.39C183.21 579.89 173.89 589.21 162.39 589.21C76.63 589.21 6.54004 519.13 6.54004 433.36V199.8C6.54004 188.3 15.86 178.98 27.36 178.98V178.98ZM448.13 343.33H389.56C362.18 343.33 362.18 301.69 389.56 301.69H448.13V273.53H328.44C316.95 273.53 307.62 264.21 307.62 252.72V207.84H248.9V252.72C248.9 264.21 239.58 273.53 228.08 273.53H183.21V494.66H448.13V466.5H389.56C362.18 466.5 362.18 424.86 389.56 424.86H448.13V404.92H389.56C362.18 404.92 362.18 363.28 389.56 363.28H448.13V343.33ZM489.77 364.77C489.77 415.01 489.77 465.24 489.77 515.48C489.77 526.98 480.44 536.3 468.95 536.3H398.53V585.9H663.45V364.77H618.58C607.08 364.77 597.76 355.45 597.76 343.95V299.08H539.04V343.95C539.04 355.45 529.71 364.77 518.22 364.77H489.77V364.77ZM798.48 311.85H705.09V636.89C758.83 626.87 798.48 579.46 798.48 524.6V311.85V311.85ZM141.57 220.62H48.18V433.36C48.18 488.22 87.8301 535.63 141.57 545.65V252.72V220.62V220.62Z" fill="#7126B5"/>
</svg>
